<svg width="316" height="69" viewBox="0 0 316 69" fill="none" xmlns="http://www.w3.org/2000/svg">
<path d="M53 0C23.7289 0 0 23.7289 0 53V0H53ZM53 9.84286C29.165 9.84286 9.84286 29.165 9.84286 53H4.54286C4.54286 26.2379 26.2379 4.54286 53 4.54286V9.84286ZM53 19.6857C34.601 19.6857 19.6857 34.601 19.6857 53H14.3857C14.3857 31.6739 31.6739 14.3857 53 14.3857V19.6857ZM53 53H24.2286C24.2286 37.11 37.11 24.2286 53 24.2286V53Z" fill="white"/>
<path d="M95.3887 52.7344C90.5384 52.7344 86.3555 51.6602 82.8398 49.5117C79.3568 47.3633 76.6712 44.3359 74.7832 40.4297C72.9277 36.4909 72 31.8685 72 26.5625V26.5137C72 21.2728 72.944 16.6667 74.832 12.6953C76.7201 8.69141 79.373 5.58268 82.791 3.36914C86.209 1.12305 90.2292 0 94.8516 0C99.474 0 103.445 1.07422 106.766 3.22266C110.118 5.33854 112.69 8.31706 114.48 12.1582C116.271 15.9993 117.166 20.459 117.166 25.5371V28.6621H76.248V22.0215H112.967L108.67 28.1738V24.9023C108.67 20.9635 108.068 17.7083 106.863 15.1367C105.691 12.5651 104.064 10.6608 101.98 9.42383C99.8971 8.1543 97.5046 7.51953 94.8027 7.51953C92.1009 7.51953 89.6758 8.18685 87.5273 9.52148C85.3789 10.8236 83.6862 12.7767 82.4492 15.3809C81.2122 17.9525 80.5938 21.1263 80.5938 24.9023V28.1738C80.5938 31.7546 81.196 34.8145 82.4004 37.3535C83.6374 39.8926 85.3789 41.8457 87.625 43.2129C89.8711 44.5475 92.5241 45.2148 95.584 45.2148C97.7324 45.2148 99.653 44.8893 101.346 44.2383C103.038 43.5872 104.454 42.6921 105.594 41.5527C106.733 40.4134 107.547 39.1113 108.035 37.6465L108.182 37.207H116.531L116.434 37.6953C116.01 39.7786 115.197 41.7318 113.992 43.5547C112.82 45.3776 111.307 46.9889 109.451 48.3887C107.596 49.7559 105.48 50.8301 103.104 51.6113C100.727 52.36 98.1556 52.7344 95.3887 52.7344Z" fill="white"/>
<path d="M144.658 52.7344C139.808 52.7344 135.625 51.6602 132.109 49.5117C128.626 47.3633 125.941 44.3359 124.053 40.4297C122.197 36.4909 121.27 31.8685 121.27 26.5625V26.5137C121.27 21.2728 122.214 16.6667 124.102 12.6953C125.99 8.69141 128.643 5.58268 132.061 3.36914C135.479 1.12305 139.499 0 144.121 0C148.743 0 152.715 1.07422 156.035 3.22266C159.388 5.33854 161.96 8.31706 163.75 12.1582C165.54 15.9993 166.436 20.459 166.436 25.5371V28.6621H125.518V22.0215H162.236L157.939 28.1738V24.9023C157.939 20.9635 157.337 17.7083 156.133 15.1367C154.961 12.5651 153.333 10.6608 151.25 9.42383C149.167 8.1543 146.774 7.51953 144.072 7.51953C141.37 7.51953 138.945 8.18685 136.797 9.52148C134.648 10.8236 132.956 12.7767 131.719 15.3809C130.482 17.9525 129.863 21.1263 129.863 24.9023V28.1738C129.863 31.7546 130.465 34.8145 131.67 37.3535C132.907 39.8926 134.648 41.8457 136.895 43.2129C139.141 44.5475 141.794 45.2148 144.854 45.2148C147.002 45.2148 148.923 44.8893 150.615 44.2383C152.308 43.5872 153.724 42.6921 154.863 41.5527C156.003 40.4134 156.816 39.1113 157.305 37.6465L157.451 37.207H165.801L165.703 37.6953C165.28 39.7786 164.466 41.7318 163.262 43.5547C162.09 45.3776 160.576 46.9889 158.721 48.3887C156.865 49.7559 154.749 50.8301 152.373 51.6113C149.997 52.36 147.425 52.7344 144.658 52.7344Z" fill="white"/>
<path d="M193.928 52.7344C189.077 52.7344 184.895 51.6602 181.379 49.5117C177.896 47.3633 175.21 44.3359 173.322 40.4297C171.467 36.4909 170.539 31.8685 170.539 26.5625V26.5137C170.539 21.2728 171.483 16.6667 173.371 12.6953C175.259 8.69141 177.912 5.58268 181.33 3.36914C184.748 1.12305 188.768 0 193.391 0C198.013 0 201.984 1.07422 205.305 3.22266C208.658 5.33854 211.229 8.31706 213.02 12.1582C214.81 15.9993 215.705 20.459 215.705 25.5371V28.6621H174.787V22.0215H211.506L207.209 28.1738V24.9023C207.209 20.9635 206.607 17.7083 205.402 15.1367C204.23 12.5651 202.603 10.6608 200.52 9.42383C198.436 8.1543 196.044 7.51953 193.342 7.51953C190.64 7.51953 188.215 8.18685 186.066 9.52148C183.918 10.8236 182.225 12.7767 180.988 15.3809C179.751 17.9525 179.133 21.1263 179.133 24.9023V28.1738C179.133 31.7546 179.735 34.8145 180.939 37.3535C182.176 39.8926 183.918 41.8457 186.164 43.2129C188.41 44.5475 191.063 45.2148 194.123 45.2148C196.271 45.2148 198.192 44.8893 199.885 44.2383C201.577 43.5872 202.993 42.6921 204.133 41.5527C205.272 40.4134 206.086 39.1113 206.574 37.6465L206.721 37.207H215.07L214.973 37.6953C214.549 39.7786 213.736 41.7318 212.531 43.5547C211.359 45.3776 209.846 46.9889 207.99 48.3887C206.135 49.7559 204.019 50.8301 201.643 51.6113C199.266 52.36 196.695 52.7344 193.928 52.7344Z" fill="white"/>
<path d="M222.299 68.8477V0.976562H230.795V9.57031H230.99C232.064 7.58464 233.383 5.89193 234.945 4.49219C236.54 3.0599 238.363 1.95312 240.414 1.17188C242.465 0.390625 244.695 0 247.104 0C251.433 0 255.209 1.09049 258.432 3.27148C261.687 5.41992 264.21 8.47982 266 12.4512C267.79 16.39 268.686 21.0286 268.686 26.3672V26.416C268.686 31.7546 267.774 36.3932 265.951 40.332C264.161 44.2708 261.654 47.3307 258.432 49.5117C255.242 51.6602 251.514 52.7344 247.25 52.7344C244.874 52.7344 242.644 52.36 240.561 51.6113C238.477 50.8301 236.622 49.7396 234.994 48.3398C233.399 46.9076 232.064 45.2148 230.99 43.2617H230.795V68.8477H222.299ZM245.443 45.2148C248.438 45.2148 251.026 44.4499 253.207 42.9199C255.388 41.39 257.064 39.2253 258.236 36.4258C259.408 33.5938 259.994 30.2572 259.994 26.416V26.3672C259.994 22.4609 259.408 19.1081 258.236 16.3086C257.064 13.4766 255.388 11.3118 253.207 9.81445C251.026 8.28451 248.438 7.51953 245.443 7.51953C242.579 7.51953 240.04 8.30078 237.826 9.86328C235.613 11.4258 233.871 13.623 232.602 16.4551C231.365 19.2546 230.746 22.5586 230.746 26.3672V26.416C230.746 30.1921 231.381 33.4961 232.65 36.3281C233.92 39.1276 235.645 41.3086 237.826 42.8711C240.04 44.4336 242.579 45.2148 245.443 45.2148Z" fill="white"/>
<path d="M278.209 68.8477C277.395 68.8477 276.565 68.7988 275.719 68.7012C274.905 68.6361 274.221 68.5547 273.668 68.457V61.5234C274.026 61.5885 274.433 61.6536 274.889 61.7188C275.377 61.7839 275.882 61.8164 276.402 61.8164C279.104 61.8164 281.253 61.3444 282.848 60.4004C284.475 59.4564 285.794 57.5521 286.803 54.6875L287.828 51.8066L268.98 0.976562H278.062L292.711 45.2148L290.904 43.2617H293.443L291.637 45.2148L306.334 0.976562H315.27L295.445 54.9316C294.241 58.1543 292.89 60.791 291.393 62.8418C289.895 64.8926 288.089 66.4062 285.973 67.3828C283.857 68.3594 281.269 68.8477 278.209 68.8477Z" fill="white"/>
</svg>
